# xmcd
#
# Track frame offsets: 
#        150
#        36228
#        54207
#        71372
#        88613
#        101874
#        118637
#        142966
#        169509
#        186397
#        205382
#        220201
#        235192
#
# Disc length: 3352 seconds
#
# Revision: 0
# Processed by: cddbd v1.5.1PL2 Copyright (c) Steve Scherf et al.
# Submitted via: ExactAudioCopy v0.95b3
#
DISCID=b70d160d
DTITLE=Various Artist - Live Country! US 99.5
DYEAR=2005
DGENRE=Country
TTITLE0=Rascal Flatts - One Good Love
TTITLE1=Shania Twain - She's Not Just A Pretty Face
TTITLE2=Gary Allan - Tough Little Boys
TTITLE3=Sugarland - Hello
TTITLE4=George Strait - Check Yes Or No
TTITLE5=Keith Urban - You're Not Alone Tonight
TTITLE6=Montgomery Gentry - My Town
TTITLE7=Dierks Bentley - What Was I Thinkin'
TTITLE8=Jo Dee Messina - Heads Carolina, Tails California
TTITLE9=Darryl Worley - Good Day To Run
TTITLE10=Terri Clark - A Little Gasoline
TTITLE11=Reba McEntire - He Gets That From Me
TTITLE12=Gary Allan - Man To Man
EXTD=
EXTT0=
EXTT1=
EXTT2=
EXTT3=
EXTT4=
EXTT5=
EXTT6=
EXTT7=
EXTT8=
EXTT9=
EXTT10=
EXTT11=
EXTT12=
PLAYORDER=
